<svg width="82" height="81" viewBox="0 0 82 81" fill="none" xmlns="http://www.w3.org/2000/svg">
<path d="M9.90206 61.4935C11.5424 66.248 12.9175 71.1732 15.378 75.5864C16.9943 78.5123 19.865 81.0481 23.3387 80.9993C28.091 80.8774 32.5779 79.1219 37.089 77.9028C45.7975 75.4402 54.1683 71.9291 62.6355 68.8082C69.4142 66.2236 77.1577 63.3221 80.3902 56.1781C84.2258 48.5465 80.2214 40.1589 78.5327 32.5272C76.1687 21.7502 72.309 10.9489 64.9755 2.53701C61.4294 -1.26663 55.8086 0.123126 51.3458 0.90336C44.4948 2.17124 37.4026 2.56138 30.9134 5.34096C26.6436 6.85266 23.1216 9.90048 18.8518 11.3878C13.1828 13.5334 7.36912 15.7278 2.59271 19.6046C0.083891 21.7015 -0.398572 25.2613 0.276879 28.3335C2.32736 39.6956 6.38006 50.5458 9.90206 61.4935ZM5.1739 23.0426C11.0117 17.8491 18.4176 15.0695 25.4857 12.0705C34.0977 7.92551 43.8676 8.7545 53.0586 6.9502C55.881 6.65762 59.2824 5.48726 61.6706 7.63291C67.3637 13.4847 71.1028 21.0919 72.8397 29.0406C74.2147 35.4531 76.5064 41.695 77.0854 48.2295C77.4954 52.0575 75.2037 55.6173 72.116 57.6411C66.4711 61.4691 59.8131 63.3221 53.5411 65.7604C44.7602 69.1983 35.7622 72.051 26.5954 74.2698C24.7137 74.7575 22.3979 75.0013 21.0229 73.2702C18.2487 70.0761 17.2838 65.8091 15.764 61.9323C11.7595 50.5702 7.05551 39.3543 4.57082 27.5045C4.42608 26.0172 3.67826 24.0666 5.1739 23.0426Z" fill="#FD5B2C"/>
<path d="M46.69 24.7492C47.7273 32.9173 48.837 41.0854 49.7536 49.2535C47.3896 50.3507 45.0496 51.5211 42.782 52.8377C43.3127 54.642 43.9641 56.4219 44.6878 58.153C47.7997 57.4703 50.8392 56.3975 53.9752 55.9098C55.7845 54.3737 57.9314 53.3741 59.9819 52.2525C62.3942 50.9846 64.0829 48.7902 65.675 46.6446C62.5872 46.035 59.4753 46.352 56.484 47.0591C54.8437 38.1596 53.4928 29.2112 52.4072 20.2141C52.166 18.6781 51.9971 17.0688 51.2493 15.679C49.7054 14.4599 47.6067 14.5574 45.8216 15.0938C44.0364 18.678 42.8544 22.5792 41.1899 26.2122C40.2008 27.8702 40.828 29.7233 41.2864 31.43C43.4334 29.5282 45.122 27.1631 46.69 24.7492Z" fill="#FD5B2C"/>
<path d="M28.8871 47.2785C29.9726 51.1797 31.0099 55.8854 35.0385 57.7629C35.8587 53.8861 36.4377 49.7655 34.8697 45.9862C37.668 44.9622 40.5627 42.3532 40.1285 39.086C37.8851 37.3061 34.9662 38.4277 32.4332 38.7203C31.5648 37.0866 30.9376 35.2093 29.4419 34.0389C28.3081 33.7219 27.1261 33.8682 25.9923 33.8438C26.5471 36.0626 27.295 38.257 27.6327 40.5489C25.0274 42.4508 21.9878 43.5723 19.0448 44.7914C19.6238 46.2056 20.2027 47.6198 20.8058 49.034C23.58 48.839 26.2577 48.1562 28.8871 47.2785Z" fill="#FD5B2C"/>
</svg>
